<svg version="1.1" viewBox="0.0 0.0 896.6325459317585 187.75853018372703" fill="none" stroke="none" stroke-linecap="square" stroke-miterlimit="10" xmlns:xlink="http://www.w3.org/1999/xlink" xmlns="http://www.w3.org/2000/svg"><clipPath id="p.0"><path d="m0 0l896.63257 0l0 187.75853l-896.63257 0l0 -187.75853z" clip-rule="nonzero"/></clipPath><g clip-path="url(#p.0)"><path fill="#000000" fill-opacity="0.0" d="m0 0l896.63257 0l0 187.75853l-896.63257 0z" fill-rule="evenodd"/><path fill="#d2b48c" d="m33.731197 33.955193c4.338501 0 8.900402 1.5716972 13.685711 4.7150917c3.098915 2.0444794 5.8447037 4.676754 8.23737 7.8968124c2.392662 3.1945038 4.475422 7.8968163 6.248295 14.106934c1.7728691 6.2101173 2.6593094 13.710812 2.6593094 22.502087c0 8.791275 -0.8864403 17.071442 -2.6593094 24.84047c-1.7728729 7.7690277 -3.9493332 13.940811 -6.5293617 18.515343c-2.5656242 4.548973 -5.376278 8.356819 -8.431953 11.423546c-3.0556755 3.0411835 -5.714981 5.1112213 -7.9779243 6.2101135c-2.24852 1.0989075 -3.9277115 1.6483765 -5.037552 1.6483765c-1.0954399 0 -1.7368507 -0.15333557 -1.9242134 -0.46002197c-0.61979294 -1.0988922 -0.92967796 -19.62703 -0.92967796 -55.584366c0 -35.957344 0.30988503 -54.485466 0.92967796 -55.584377c0 -0.15333557 0.57654953 -0.23000717 1.7296295 -0.23000717zm-9.296768 -27.102173c-9.570635 0 -14.79557 0.79223585 -15.674786 2.3767114c-0.08648205 0.15333652 -0.1297226 0.8944626 -0.1297226 2.2233753c0 1.3289118 0.7495136 5.4178753 2.2485209 12.266897c1.5134277 6.8234596 2.7529898 11.564108 3.718708 14.221933l-0.38916683 93.03674c0 27.012726 0.26664448 40.991867 0.7999544 41.937454c0.53330994 0.94555664 2.565627 1.4183502 6.0969515 1.4183502c7.5383167 0 15.912609 -2.6705933 25.122898 -8.01181c4.6844254 -2.8367157 9.131027 -6.721237 13.339783 -11.653549c4.2087746 -4.9578857 8.013966 -10.695206 11.415569 -17.21199c3.4160233 -6.5167847 6.14019 -14.515823 8.172508 -23.997116c2.0467224 -9.506851 3.0700912 -19.920937 3.0700912 -31.242256c0 -22.923763 -5.030342 -41.209106 -15.091034 -54.856026c-10.04628 -13.672478 -24.279701 -20.508718 -42.700275 -20.508718z" fill-rule="evenodd"/><path fill="#d2b48c" d="m130.71332 32.99684c12.395691 0 18.593536 18.451454 18.593536 55.35437c0 40.659653 -8.05719 60.989487 -24.1716 60.989487c-6.3852234 0 -11.660599 -4.663971 -15.826126 -13.991943c-4.1511154 -9.3535 -6.226677 -20.62371 -6.226677 -33.810623c0 -6.7467957 0.39637756 -13.723595 1.1891251 -20.930397c0.7927475 -7.232361 1.8521423 -12.0241165 3.1781998 -14.375267c0.8071594 6.900131 2.1187973 13.455254 3.934906 19.665367c1.8161163 6.184555 3.4088135 10.771866 4.7781143 13.761925c1.3692932 2.990059 2.2773514 4.4850845 2.7241669 4.4850845c1.9458313 0 4.554695 -0.8178024 7.826584 -2.4533768c3.2863007 -1.6611481 4.9294434 -3.4373016 4.9294434 -5.328438l-2.9403687 -6.5934525c-2.032318 -4.395645 -4.0430145 -10.362984 -6.032089 -17.902008c-1.9890747 -7.539032 -2.983612 -14.094154 -2.983612 -19.665367c0 -5.571213 0.95129395 -10.158524 2.8538895 -13.761925c1.9025955 -3.6289597 4.6267624 -5.4434357 8.172508 -5.4434357zm-1.2107391 -25.18547c-4.5979385 0 -9.469734 2.593936 -14.615387 7.7818127c-2.7385788 2.8111649 -4.9726944 7.1301327 -6.702324 12.956909c-1.7296295 5.801218 -2.594452 12.624678 -2.594452 20.470385l-2.507965 0c-4.8717957 0 -7.6680374 0.35778046 -8.38871 1.0733528c-0.7062607 0.6900139 -1.6359406 2.849495 -2.789032 6.4784546c-1.1386719 3.6034012 -2.3782425 9.7240715 -3.7187042 18.362011c-1.3260574 8.637939 -1.9890747 17.902 -1.9890747 27.79219c0 20.419266 3.1637878 37.3757 9.491348 50.869278c6.3419876 13.493591 16.107193 20.240387 29.295631 20.240387c6.471718 0 12.208321 -1.7250366 17.209831 -5.1750946c5.001526 -3.4500732 9.008514 -7.884033 12.02095 -13.301926c3.012436 -5.417877 5.4483337 -11.896332 7.3076935 -19.435364c3.271881 -13.3402405 4.9078217 -28.571648 4.9078217 -45.694183c0 -54.94548 -12.309219 -82.41822 -36.927628 -82.41821z" fill-rule="evenodd"/><path fill="#d2b48c" d="m226.20226 8.731388c-8.316635 0 -15.64595 2.1978207 -21.987946 6.593457c-6.3275604 4.3956404 -11.285843 9.90297 -14.874817 16.521976c-3.574585 6.5934563 -6.5149536 14.362495 -8.821121 23.307106c-3.6322327 14.285824 -5.448349 30.220013 -5.448349 47.802563c0 20.879272 2.8971405 37.912376 8.691406 51.099297c5.80867 13.186905 14.471252 19.780365 25.987701 19.780365c8.403137 0 15.220764 -4.625641 20.452896 -13.876923l0.38917542 -0.4600067l0.2810669 0.4600067c0.43240356 1.7122498 0.64860535 6.810669 0.64860535 15.295288c0 0.48554993 0.95129395 0.7283478 2.853897 0.7283478c1.9025879 0 4.223175 -0.983902 6.9617615 -2.9517212c2.7529907 -1.9678345 4.374527 -3.7439728 4.8645935 -5.3284454c0.49005127 -1.5589142 0.7783356 -23.460434 0.8648071 -65.70456c0.7927551 -2.018921 1.7440491 -6.133438 2.853897 -12.343567c1.109848 -6.2101135 1.6647644 -11.116875 1.6647644 -14.720276c0 -0.7922363 -2.5223694 -1.1883545 -7.5671387 -1.1883545c-19.660141 0 -30.11 1.0989151 -31.349564 3.29673c-1.2395782 2.197815 -2.2629395 5.73732 -3.0700989 10.61853c-0.79273987 4.855652 -1.1891174 8.305717 -1.1891174 10.350197c0 2.044487 0.18016052 3.066719 0.5405121 3.066719l8.1076355 -0.7283478c7.610382 0 11.725464 0.71556854 12.345245 2.1467133c0.53330994 0.94556427 0.7999573 6.1973267 0.7999573 15.755295l0 7.5518036c0 3.4500656 -1.7944946 7.69236 -5.3834686 12.726906c-3.5889893 5.008972 -8.266205 7.5134735 -14.031647 7.5134735c-5.7510223 0 -10.219238 -4.1528625 -13.404633 -12.458557c-3.1854095 -8.331284 -4.7781067 -19.40982 -4.7781067 -33.235634c0 -21.492622 2.7890167 -37.810158 8.367081 -48.952583c5.578064 -11.167984 13.058716 -16.75198 22.44197 -16.75198c6.558197 0 11.213776 1.2650261 13.966782 3.7950706c0.5188904 -0.9455757 1.0017395 -4.0122986 1.4485626 -9.2001705c0.44682312 -5.187872 0.67022705 -9.264057 0.67022705 -12.228563c0 -2.990056 -0.11531067 -4.715089 -0.34591675 -5.1750975c-0.21620178 -0.48556232 -1.9602509 -1.1244621 -5.232147 -1.9167023c-3.271881 -0.7922354 -5.8447113 -1.1883554 -7.7184753 -1.1883554z" fill-rule="evenodd"/><path fill="#d2b48c" d="m310.02155 8.731388c-8.31665 0 -15.645966 2.1978207 -21.987946 6.593457c-6.3275757 4.3956404 -11.285828 9.90297 -14.874817 16.521976c-3.574585 6.5934563 -6.5149536 14.362495 -8.821136 23.307106c-3.6322327 14.285824 -5.4483337 30.220013 -5.4483337 47.802563c0 20.879272 2.8971252 37.912376 8.691406 51.099297c5.8086853 13.186905 14.471252 19.780365 25.987701 19.780365c8.403137 0 15.220764 -4.625641 20.452911 -13.876923l0.38916016 -0.4600067l0.2810669 0.4600067c0.43240356 1.7122498 0.6485901 6.810669 0.6485901 15.295288c0 0.48554993 0.95132446 0.7283478 2.8539124 0.7283478c1.9025879 0 4.223175 -0.983902 6.9617615 -2.9517212c2.7529907 -1.9678345 4.3745117 -3.7439728 4.8645935 -5.3284454c0.49005127 -1.5589142 0.7783203 -23.460434 0.8648071 -65.70456c0.7927551 -2.018921 1.7440491 -6.133438 2.8538818 -12.343567c1.1098633 -6.2101135 1.6647949 -11.116875 1.6647949 -14.720276c0 -0.7922363 -2.5224 -1.1883545 -7.5671387 -1.1883545c-19.660156 0 -30.110016 1.0989151 -31.349579 3.29673c-1.239563 2.197815 -2.2629395 5.73732 -3.0700989 10.61853c-0.7927551 4.855652 -1.1891174 8.305717 -1.1891174 10.350197c0 2.044487 0.18017578 3.066719 0.5404968 3.066719l8.107666 -0.7283478c7.610382 0 11.725464 0.71556854 12.345245 2.1467133c0.5332947 0.94556427 0.7999573 6.1973267 0.7999573 15.755295l0 7.5518036c0 3.4500656 -1.7944946 7.69236 -5.383484 12.726906c-3.5889893 5.008972 -8.266205 7.5134735 -14.031647 7.5134735c-5.751007 0 -10.219238 -4.1528625 -13.404633 -12.458557c-3.1854248 -8.331284 -4.7781067 -19.40982 -4.7781067 -33.235634c0 -21.492622 2.789032 -37.810158 8.367096 -48.952583c5.578064 -11.167984 13.058716 -16.75198 22.441956 -16.75198c6.558197 0 11.213776 1.2650261 13.966766 3.7950706c0.5188904 -0.9455757 1.0017395 -4.0122986 1.4485779 -9.2001705c0.44680786 -5.187872 0.67022705 -9.264057 0.67022705 -12.228563c0 -2.990056 -0.11529541 -4.715089 -0.34591675 -5.1750975c-0.21621704 -0.48556232 -1.9602661 -1.1244621 -5.232147 -1.9167023c-3.271881 -0.7922354 -5.844696 -1.1883554 -7.7184753 -1.1883554z" fill-rule="evenodd"/><path fill="#d2b48c" d="m390.79236 10.379752c-30.109985 0 -45.647858 0.8689041 -46.613556 2.6067152c0 1.8911486 0.77111816 6.1334496 2.313385 12.726906c1.5566406 6.593458 2.8178406 10.746309 3.7835693 12.458567c0.18734741 0.6389046 0.28103638 4.331749 0.28103638 11.078541l-0.15133667 25.453812c-4.6844177 0.30667114 -7.0266113 0.5366745 -7.0266113 0.6900101c0 3.7822952 0.72787476 8.344048 2.1836548 13.685257c1.4701843 5.3156586 2.9980164 9.23851 4.5835266 11.768555c-0.17297363 15.998085 -0.25946045 31.191147 -0.25946045 45.579193c0 14.362488 0.2666626 21.927078 0.7999573 22.693756c0.5332947 1.2778015 8.302246 1.9167023 23.306793 1.9167023c15.004547 0 22.953644 -0.7922363 23.84729 -2.376709c1.5855103 -2.657837 3.0845337 -6.5806885 4.49704 -11.768555c1.4269409 -5.1878815 2.1404114 -9.660187 2.1404114 -13.416916c0 -0.032852173 -0.044677734 -0.04928589 -0.13400269 -0.04928589c-0.32763672 0 -1.2558594 0.22087097 -2.784729 0.6626282c-1.9458313 0.5366821 -5.707794 0.80500793 -11.285858 0.80500793c-13.822632 0 -21.440216 -1.2650146 -22.852753 -3.7950592c-0.44680786 -0.7666931 -0.67022705 -7.6668243 -0.67022705 -20.700394c0 -13.033577 0.04324341 -19.627037 0.12973022 -19.780373c0.89364624 -0.94556427 4.129486 -1.7761307 9.70755 -2.4917145c5.578064 -0.71556854 9.520172 -1.073349 11.826355 -1.073349c0.011413574 0.011810303 0.02420044 0.017715454 0.038330078 0.017715454c0.19973755 0 0.6698303 -1.181488 1.4102173 -3.5444489c2.1332092 -7.2068024 3.199829 -13.646927 3.199829 -19.320366c0 -0.4600067 -3.459259 -0.6900101 -10.377777 -0.6900101c-6.904114 0 -12.129059 0.076667786 -15.674805 0.23000336l-0.1296997 -9.890186c0 -16.330307 0.26663208 -24.968243 0.79992676 -25.913818c0.5333252 -0.9455757 3.675476 -1.7633667 9.426514 -2.4533806c5.765442 -0.71557236 10.262482 -1.0733528 13.491119 -1.0733528c3.2286377 0 5.0447693 0.1277771 5.4483337 0.38333893c0.035980225 0.020496368 0.07400513 0.03074646 0.11407471 0.03074646c0.409729 0 1.0347595 -1.0708275 1.875 -3.212471c0.93688965 -2.376711 1.8233337 -5.5201035 2.6593018 -9.430178c0.83599854 -3.935627 1.2539978 -7.5518074 1.2539978 -10.8485365c0 -0.63889885 -3.7187195 -0.95835114 -11.156128 -0.95835114z" fill-rule="evenodd"/><path fill="#d2b48c" d="m445.0016 33.22685c5.8375244 0 10.6588745 1.6100273 14.46405 4.8300896c3.8051758 3.2200584 5.707794 8.254597 5.707794 15.103615c0 6.8234634 -2.45755 13.736366 -7.3725586 20.738724c-4.900635 6.976799 -12.575867 11.32132 -23.025726 13.033577c0 -28.111633 0.25942993 -45.54085 0.7783203 -52.287647c3.199829 -0.9455757 6.3492126 -1.4183578 9.44812 -1.4183578zm-5.9888306 -24.725464c-5.578064 0 -11.091278 0.28111744 -16.539612 0.84334946c-5.4483337 0.5366764 -8.259003 1.0094643 -8.431946 1.4183598c-0.17297363 0.38333988 -0.25946045 1.2394686 -0.25946045 2.5683813c0 1.3289118 0.5477295 4.9067593 1.643158 10.733534c1.1098328 5.801218 2.241333 9.954069 3.3944092 12.458567l-0.7999573 135.89421c1.4269409 0.9455719 3.1133423 1.4183655 5.0591736 1.4183655c1.9458313 0 4.3817444 -0.51112366 7.307678 -1.5333557c2.9259644 -1.0222473 4.8717957 -2.3894806 5.8375244 -4.1017456c-0.7062988 -5.1878815 -1.1459045 -23.562683 -1.3188477 -55.124374c7.3509216 -2.1978226 11.55249 -3.8461838 12.604675 -4.9450912c0.5333252 4.39563 3.2142334 16.330307 8.042786 35.80401c4.8285522 19.473694 8.215759 30.935577 10.161591 34.385635l3.3295288 0.46002197c4.5114746 0 8.713043 -1.6483765 12.604706 -4.945099c1.4269409 -1.0989075 2.1404114 -1.8400421 2.1404114 -2.2233734c0 -0.38334656 -0.04324341 -0.6644592 -0.12973022 -0.8433533c-3.2862854 -5.8012238 -7.7184753 -18.707016 -13.296539 -38.717392c-5.578064 -20.035927 -8.367096 -31.306137 -8.367096 -33.81063c6.370819 -5.494545 11.415588 -12.241341 15.134277 -20.24038c3.7187195 -8.024597 5.578064 -16.700863 5.578064 -26.028824c0 -9.353508 -1.3692627 -17.007545 -4.1078796 -22.962097c-2.7385864 -5.980112 -6.4572754 -10.337414 -11.156097 -13.071912c-4.698822 -2.7600517 -9.217499 -4.689533 -13.556 -5.7884417c-4.338501 -1.0989075 -9.296783 -1.6483641 -14.874817 -1.6483641z" fill-rule="evenodd"/><path stroke="#000000" stroke-width="8.0" stroke-linejoin="round" stroke-linecap="butt" d="m33.731197 33.955193c4.338501 0 8.900402 1.5716972 13.685711 4.7150917c3.098915 2.0444794 5.8447037 4.676754 8.23737 7.8968124c2.392662 3.1945038 4.475422 7.8968163 6.248295 14.106934c1.7728691 6.2101173 2.6593094 13.710812 2.6593094 22.502087c0 8.791275 -0.8864403 17.071442 -2.6593094 24.84047c-1.7728729 7.7690277 -3.9493332 13.940811 -6.5293617 18.515343c-2.5656242 4.548973 -5.376278 8.356819 -8.431953 11.423546c-3.0556755 3.0411835 -5.714981 5.1112213 -7.9779243 6.2101135c-2.24852 1.0989075 -3.9277115 1.6483765 -5.037552 1.6483765c-1.0954399 0 -1.7368507 -0.15333557 -1.9242134 -0.46002197c-0.61979294 -1.0988922 -0.92967796 -19.62703 -0.92967796 -55.584366c0 -35.957344 0.30988503 -54.485466 0.92967796 -55.584377c0 -0.15333557 0.57654953 -0.23000717 1.7296295 -0.23000717zm-9.296768 -27.102173c-9.570635 0 -14.79557 0.79223585 -15.674786 2.3767114c-0.08648205 0.15333652 -0.1297226 0.8944626 -0.1297226 2.2233753c0 1.3289118 0.7495136 5.4178753 2.2485209 12.266897c1.5134277 6.8234596 2.7529898 11.564108 3.718708 14.221933l-0.38916683 93.03674c0 27.012726 0.26664448 40.991867 0.7999544 41.937454c0.53330994 0.94555664 2.565627 1.4183502 6.0969515 1.4183502c7.5383167 0 15.912609 -2.6705933 25.122898 -8.01181c4.6844254 -2.8367157 9.131027 -6.721237 13.339783 -11.653549c4.2087746 -4.9578857 8.013966 -10.695206 11.415569 -17.21199c3.4160233 -6.5167847 6.14019 -14.515823 8.172508 -23.997116c2.0467224 -9.506851 3.0700912 -19.920937 3.0700912 -31.242256c0 -22.923763 -5.030342 -41.209106 -15.091034 -54.856026c-10.04628 -13.672478 -24.279701 -20.508718 -42.700275 -20.508718z" fill-rule="evenodd"/><path stroke="#000000" stroke-width="8.0" stroke-linejoin="round" stroke-linecap="butt" d="m130.71332 32.99684c12.395691 0 18.593536 18.451454 18.593536 55.35437c0 40.659653 -8.05719 60.989487 -24.1716 60.989487c-6.3852234 0 -11.660599 -4.663971 -15.826126 -13.991943c-4.1511154 -9.3535 -6.226677 -20.62371 -6.226677 -33.810623c0 -6.7467957 0.39637756 -13.723595 1.1891251 -20.930397c0.7927475 -7.232361 1.8521423 -12.0241165 3.1781998 -14.375267c0.8071594 6.900131 2.1187973 13.455254 3.934906 19.665367c1.8161163 6.184555 3.4088135 10.771866 4.7781143 13.761925c1.3692932 2.990059 2.2773514 4.4850845 2.7241669 4.4850845c1.9458313 0 4.554695 -0.8178024 7.826584 -2.4533768c3.2863007 -1.6611481 4.9294434 -3.4373016 4.9294434 -5.328438l-2.9403687 -6.5934525c-2.032318 -4.395645 -4.0430145 -10.362984 -6.032089 -17.902008c-1.9890747 -7.539032 -2.983612 -14.094154 -2.983612 -19.665367c0 -5.571213 0.95129395 -10.158524 2.8538895 -13.761925c1.9025955 -3.6289597 4.6267624 -5.4434357 8.172508 -5.4434357zm-1.2107391 -25.18547c-4.5979385 0 -9.469734 2.593936 -14.615387 7.7818127c-2.7385788 2.8111649 -4.9726944 7.1301327 -6.702324 12.956909c-1.7296295 5.801218 -2.594452 12.624678 -2.594452 20.470385l-2.507965 0c-4.8717957 0 -7.6680374 0.35778046 -8.38871 1.0733528c-0.7062607 0.6900139 -1.6359406 2.849495 -2.789032 6.4784546c-1.1386719 3.6034012 -2.3782425 9.7240715 -3.7187042 18.362011c-1.3260574 8.637939 -1.9890747 17.902 -1.9890747 27.79219c0 20.419266 3.1637878 37.3757 9.491348 50.869278c6.3419876 13.493591 16.107193 20.240387 29.295631 20.240387c6.471718 0 12.208321 -1.7250366 17.209831 -5.1750946c5.001526 -3.4500732 9.008514 -7.884033 12.02095 -13.301926c3.012436 -5.417877 5.4483337 -11.896332 7.3076935 -19.435364c3.271881 -13.3402405 4.9078217 -28.571648 4.9078217 -45.694183c0 -54.94548 -12.309219 -82.41822 -36.927628 -82.41821z" fill-rule="evenodd"/><path stroke="#000000" stroke-width="8.0" stroke-linejoin="round" stroke-linecap="butt" d="m226.20226 8.731388c-8.316635 0 -15.64595 2.1978207 -21.987946 6.593457c-6.3275604 4.3956404 -11.285843 9.90297 -14.874817 16.521976c-3.574585 6.5934563 -6.5149536 14.362495 -8.821121 23.307106c-3.6322327 14.285824 -5.448349 30.220013 -5.448349 47.802563c0 20.879272 2.8971405 37.912376 8.691406 51.099297c5.80867 13.186905 14.471252 19.780365 25.987701 19.780365c8.403137 0 15.220764 -4.625641 20.452896 -13.876923l0.38917542 -0.4600067l0.2810669 0.4600067c0.43240356 1.7122498 0.64860535 6.810669 0.64860535 15.295288c0 0.48554993 0.95129395 0.7283478 2.853897 0.7283478c1.9025879 0 4.223175 -0.983902 6.9617615 -2.9517212c2.7529907 -1.9678345 4.374527 -3.7439728 4.8645935 -5.3284454c0.49005127 -1.5589142 0.7783356 -23.460434 0.8648071 -65.70456c0.7927551 -2.018921 1.7440491 -6.133438 2.853897 -12.343567c1.109848 -6.2101135 1.6647644 -11.116875 1.6647644 -14.720276c0 -0.7922363 -2.5223694 -1.1883545 -7.5671387 -1.1883545c-19.660141 0 -30.11 1.0989151 -31.349564 3.29673c-1.2395782 2.197815 -2.2629395 5.73732 -3.0700989 10.61853c-0.79273987 4.855652 -1.1891174 8.305717 -1.1891174 10.350197c0 2.044487 0.18016052 3.066719 0.5405121 3.066719l8.1076355 -0.7283478c7.610382 0 11.725464 0.71556854 12.345245 2.1467133c0.53330994 0.94556427 0.7999573 6.1973267 0.7999573 15.755295l0 7.5518036c0 3.4500656 -1.7944946 7.69236 -5.3834686 12.726906c-3.5889893 5.008972 -8.266205 7.5134735 -14.031647 7.5134735c-5.7510223 0 -10.219238 -4.1528625 -13.404633 -12.458557c-3.1854095 -8.331284 -4.7781067 -19.40982 -4.7781067 -33.235634c0 -21.492622 2.7890167 -37.810158 8.367081 -48.952583c5.578064 -11.167984 13.058716 -16.75198 22.44197 -16.75198c6.558197 0 11.213776 1.2650261 13.966782 3.7950706c0.5188904 -0.9455757 1.0017395 -4.0122986 1.4485626 -9.2001705c0.44682312 -5.187872 0.67022705 -9.264057 0.67022705 -12.228563c0 -2.990056 -0.11531067 -4.715089 -0.34591675 -5.1750975c-0.21620178 -0.48556232 -1.9602509 -1.1244621 -5.232147 -1.9167023c-3.271881 -0.7922354 -5.8447113 -1.1883554 -7.7184753 -1.1883554z" fill-rule="evenodd"/><path stroke="#000000" stroke-width="8.0" stroke-linejoin="round" stroke-linecap="butt" d="m310.02155 8.731388c-8.31665 0 -15.645966 2.1978207 -21.987946 6.593457c-6.3275757 4.3956404 -11.285828 9.90297 -14.874817 16.521976c-3.574585 6.5934563 -6.5149536 14.362495 -8.821136 23.307106c-3.6322327 14.285824 -5.4483337 30.220013 -5.4483337 47.802563c0 20.879272 2.8971252 37.912376 8.691406 51.099297c5.8086853 13.186905 14.471252 19.780365 25.987701 19.780365c8.403137 0 15.220764 -4.625641 20.452911 -13.876923l0.38916016 -0.4600067l0.2810669 0.4600067c0.43240356 1.7122498 0.6485901 6.810669 0.6485901 15.295288c0 0.48554993 0.95132446 0.7283478 2.8539124 0.7283478c1.9025879 0 4.223175 -0.983902 6.9617615 -2.9517212c2.7529907 -1.9678345 4.3745117 -3.7439728 4.8645935 -5.3284454c0.49005127 -1.5589142 0.7783203 -23.460434 0.8648071 -65.70456c0.7927551 -2.018921 1.7440491 -6.133438 2.8538818 -12.343567c1.1098633 -6.2101135 1.6647949 -11.116875 1.6647949 -14.720276c0 -0.7922363 -2.5224 -1.1883545 -7.5671387 -1.1883545c-19.660156 0 -30.110016 1.0989151 -31.349579 3.29673c-1.239563 2.197815 -2.2629395 5.73732 -3.0700989 10.61853c-0.7927551 4.855652 -1.1891174 8.305717 -1.1891174 10.350197c0 2.044487 0.18017578 3.066719 0.5404968 3.066719l8.107666 -0.7283478c7.610382 0 11.725464 0.71556854 12.345245 2.1467133c0.5332947 0.94556427 0.7999573 6.1973267 0.7999573 15.755295l0 7.5518036c0 3.4500656 -1.7944946 7.69236 -5.383484 12.726906c-3.5889893 5.008972 -8.266205 7.5134735 -14.031647 7.5134735c-5.751007 0 -10.219238 -4.1528625 -13.404633 -12.458557c-3.1854248 -8.331284 -4.7781067 -19.40982 -4.7781067 -33.235634c0 -21.492622 2.789032 -37.810158 8.367096 -48.952583c5.578064 -11.167984 13.058716 -16.75198 22.441956 -16.75198c6.558197 0 11.213776 1.2650261 13.966766 3.7950706c0.5188904 -0.9455757 1.0017395 -4.0122986 1.4485779 -9.2001705c0.44680786 -5.187872 0.67022705 -9.264057 0.67022705 -12.228563c0 -2.990056 -0.11529541 -4.715089 -0.34591675 -5.1750975c-0.21621704 -0.48556232 -1.9602661 -1.1244621 -5.232147 -1.9167023c-3.271881 -0.7922354 -5.844696 -1.1883554 -7.7184753 -1.1883554z" fill-rule="evenodd"/><path stroke="#000000" stroke-width="8.0" stroke-linejoin="round" stroke-linecap="butt" d="m390.79236 10.379752c-30.109985 0 -45.647858 0.8689041 -46.613556 2.6067152c0 1.8911486 0.77111816 6.1334496 2.313385 12.726906c1.5566406 6.593458 2.8178406 10.746309 3.7835693 12.458567c0.18734741 0.6389046 0.28103638 4.331749 0.28103638 11.078541l-0.15133667 25.453812c-4.6844177 0.30667114 -7.0266113 0.5366745 -7.0266113 0.6900101c0 3.7822952 0.72787476 8.344048 2.1836548 13.685257c1.4701843 5.3156586 2.9980164 9.23851 4.5835266 11.768555c-0.17297363 15.998085 -0.25946045 31.191147 -0.25946045 45.579193c0 14.362488 0.2666626 21.927078 0.7999573 22.693756c0.5332947 1.2778015 8.302246 1.9167023 23.306793 1.9167023c15.004547 0 22.953644 -0.7922363 23.84729 -2.376709c1.5855103 -2.657837 3.0845337 -6.5806885 4.49704 -11.768555c1.4269409 -5.1878815 2.1404114 -9.660187 2.1404114 -13.416916c0 -0.032852173 -0.044677734 -0.04928589 -0.13400269 -0.04928589c-0.32763672 0 -1.2558594 0.22087097 -2.784729 0.6626282c-1.9458313 0.5366821 -5.707794 0.80500793 -11.285858 0.80500793c-13.822632 0 -21.440216 -1.2650146 -22.852753 -3.7950592c-0.44680786 -0.7666931 -0.67022705 -7.6668243 -0.67022705 -20.700394c0 -13.033577 0.04324341 -19.627037 0.12973022 -19.780373c0.89364624 -0.94556427 4.129486 -1.7761307 9.70755 -2.4917145c5.578064 -0.71556854 9.520172 -1.073349 11.826355 -1.073349c0.011413574 0.011810303 0.02420044 0.017715454 0.038330078 0.017715454c0.19973755 0 0.6698303 -1.181488 1.4102173 -3.5444489c2.1332092 -7.2068024 3.199829 -13.646927 3.199829 -19.320366c0 -0.4600067 -3.459259 -0.6900101 -10.377777 -0.6900101c-6.904114 0 -12.129059 0.076667786 -15.674805 0.23000336l-0.1296997 -9.890186c0 -16.330307 0.26663208 -24.968243 0.79992676 -25.913818c0.5333252 -0.9455757 3.675476 -1.7633667 9.426514 -2.4533806c5.765442 -0.71557236 10.262482 -1.0733528 13.491119 -1.0733528c3.2286377 0 5.0447693 0.1277771 5.4483337 0.38333893c0.035980225 0.020496368 0.07400513 0.03074646 0.11407471 0.03074646c0.409729 0 1.0347595 -1.0708275 1.875 -3.212471c0.93688965 -2.376711 1.8233337 -5.5201035 2.6593018 -9.430178c0.83599854 -3.935627 1.2539978 -7.5518074 1.2539978 -10.8485365c0 -0.63889885 -3.7187195 -0.95835114 -11.156128 -0.95835114z" fill-rule="evenodd"/><path stroke="#000000" stroke-width="8.0" stroke-linejoin="round" stroke-linecap="butt" d="m445.0016 33.22685c5.8375244 0 10.6588745 1.6100273 14.46405 4.8300896c3.8051758 3.2200584 5.707794 8.254597 5.707794 15.103615c0 6.8234634 -2.45755 13.736366 -7.3725586 20.738724c-4.900635 6.976799 -12.575867 11.32132 -23.025726 13.033577c0 -28.111633 0.25942993 -45.54085 0.7783203 -52.287647c3.199829 -0.9455757 6.3492126 -1.4183578 9.44812 -1.4183578zm-5.9888306 -24.725464c-5.578064 0 -11.091278 0.28111744 -16.539612 0.84334946c-5.4483337 0.5366764 -8.259003 1.0094643 -8.431946 1.4183598c-0.17297363 0.38333988 -0.25946045 1.2394686 -0.25946045 2.5683813c0 1.3289118 0.5477295 4.9067593 1.643158 10.733534c1.1098328 5.801218 2.241333 9.954069 3.3944092 12.458567l-0.7999573 135.89421c1.4269409 0.9455719 3.1133423 1.4183655 5.0591736 1.4183655c1.9458313 0 4.3817444 -0.51112366 7.307678 -1.5333557c2.9259644 -1.0222473 4.8717957 -2.3894806 5.8375244 -4.1017456c-0.7062988 -5.1878815 -1.1459045 -23.562683 -1.3188477 -55.124374c7.3509216 -2.1978226 11.55249 -3.8461838 12.604675 -4.9450912c0.5333252 4.39563 3.2142334 16.330307 8.042786 35.80401c4.8285522 19.473694 8.215759 30.935577 10.161591 34.385635l3.3295288 0.46002197c4.5114746 0 8.713043 -1.6483765 12.604706 -4.945099c1.4269409 -1.0989075 2.1404114 -1.8400421 2.1404114 -2.2233734c0 -0.38334656 -0.04324341 -0.6644592 -0.12973022 -0.8433533c-3.2862854 -5.8012238 -7.7184753 -18.707016 -13.296539 -38.717392c-5.578064 -20.035927 -8.367096 -31.306137 -8.367096 -33.81063c6.370819 -5.494545 11.415588 -12.241341 15.134277 -20.24038c3.7187195 -8.024597 5.578064 -16.700863 5.578064 -26.028824c0 -9.353508 -1.3692627 -17.007545 -4.1078796 -22.962097c-2.7385864 -5.980112 -6.4572754 -10.337414 -11.156097 -13.071912c-4.698822 -2.7600517 -9.217499 -4.689533 -13.556 -5.7884417c-4.338501 -1.0989075 -9.296783 -1.6483641 -14.874817 -1.6483641z" fill-rule="evenodd"/><path fill="#b4fdbc" d="m750.4105 23.871237c0.26171875 0 0.54351807 0.22380829 0.84552 0.67141914c0.32208252 0.4240551 0.48309326 1.3546219 0.48309326 2.7916946c0 2.897707 -0.744812 6.9969025 -2.234497 12.297588c-1.489685 5.2771225 -3.5933228 11.249226 -6.310974 17.91631c-2.7176514 6.643524 -5.8378906 13.510849 -9.360779 20.60199c-3.5228271 7.0911407 -7.3275757 13.934921 -11.4140625 20.531319c-4.086548 6.5728455 -8.293884 12.391815 -12.621948 17.456917c2.093567 -8.386864 4.6502075 -16.915077 7.6698 -25.584633c3.039734 -8.693123 6.2304077 -17.021088 9.572144 -24.983887c3.3416748 -7.9628067 6.622986 -15.053944 9.843872 -21.273415c3.2209473 -6.2430305 6.029175 -11.202114 8.424683 -14.877253c2.4157104 -3.698698 4.1167603 -5.54805 5.1031494 -5.54805zm-75.12622 67.31869c1.6104126 0 2.6572266 0.43582916 3.1403809 1.3075027c0.50323486 0.8481064 0.7548828 2.0731583 0.7548828 3.6751404c0 4.6410446 -1.2682495 9.058281 -3.8046875 13.251709c-2.536499 4.1934204 -5.7573853 8.03347 -9.66272 11.520149c-3.885254 3.4631195 -7.9315186 6.466835 -12.138855 9.011169c-4.2072754 2.5207672 -7.9818115 4.429016 -11.323486 5.7247314c1.2481079 -5.2064514 3.1101685 -10.41291 5.5862427 -15.619347c2.4760742 -5.2064514 5.2541504 -9.977074 8.334106 -14.311844c3.1001587 -4.358345 6.321045 -7.868576 9.662781 -10.530693c3.3416748 -2.6856842 6.4921265 -4.0285187 9.451355 -4.0285187zm106.861755 0.8481064c1.6104736 0 2.939087 0.977684 3.9859009 2.9330444c1.0467529 1.9553604 1.5701904 5.02977 1.5701904 9.22319c0 5.206459 -1.0166016 10.742722 -3.0498047 16.60881c-2.0332031 5.866089 -4.5998535 11.47303 -7.700012 16.820839c-2.093567 -2.8741608 -3.6738281 -6.443283 -4.7407837 -10.707382c-1.046814 -4.287674 -1.5701904 -8.528221 -1.5701904 -12.721642c0 -6.3608246 1.2984619 -11.637955 3.8953247 -15.831375c2.5968018 -4.2169876 5.133301 -6.325485 7.609375 -6.325485zm-30.799438 -85.76507c-2.093628 0 -4.97229 2.4618716 -8.636108 7.3856196c-3.6436157 4.923747 -7.6295166 11.520154 -11.957581 19.789223c-4.328125 8.245502 -8.656189 17.398018 -12.984314 27.457542c-4.328125 10.059525 -8.313965 20.37819 -11.957642 30.955994c-3.6436157 10.554245 -6.5827026 20.613762 -8.8172 30.178558c-0.7293701 3.1142044 -1.3396606 6.0891113 -1.8309326 8.924744l0 0c-2.7608643 5.596405 -5.9849243 10.796326 -9.672302 15.599762c-4.4489136 5.7718506 -9.270203 10.436462 -14.463928 13.993805c-5.1936646 3.533783 -10.447815 5.3006744 -15.762329 5.3006744c-2.8585205 0 -5.2440186 -0.5065155 -7.156433 -1.519516c-1.9124146 -1.0130157 -3.432312 -2.4147491 -4.5596313 -4.2052155c-1.1071777 -1.8140259 -1.8822021 -3.8047333 -2.3250732 -5.972107c-0.4227295 -2.1909485 -0.63409424 -4.370117 -0.63409424 -6.537506c0 -1.1543732 0.06036377 -2.3794098 0.18115234 -3.6751404c0.120788574 -1.3192902 0.31201172 -2.697464 0.57373047 -4.1345367c5.314514 -0.58895874 10.65918 -2.0731506 16.034119 -4.4525757c5.374878 -2.379425 10.316956 -5.453827 14.826233 -9.22319c4.529419 -3.769371 8.183105 -8.080589 10.961182 -12.93367c2.7780151 -4.853073 4.167053 -10.024193 4.167053 -15.513336c0 -5.3477936 -1.2078857 -8.893364 -3.6235352 -10.6367035c-2.3955688 -1.7433319 -5.0125732 -2.6150055 -7.851013 -2.6150055c-5.4553833 0 -10.971191 1.9906998 -16.547424 5.972107c-5.5560303 3.9814072 -10.65918 9.164299 -15.309387 15.548676c-4.630005 6.360817 -8.334106 13.157478 -11.112122 20.389961c-2.7780151 7.2324905 -4.167053 14.11158 -4.167053 20.637337c0 7.0911255 1.8822021 13.051437 5.6466675 17.880966c3.784546 4.853073 9.451355 7.279602 17.000366 7.279602c6.1801147 0 12.269653 -1.7786713 18.268616 -5.336014c5.9989014 -3.5337982 11.565063 -8.481094 16.698364 -14.841919c2.788391 -3.4551544 5.3125 -7.2543945 7.5722046 -11.39769l0 0c-0.17749023 2.1597443 -0.26623535 4.215637 -0.26623535 6.167679c0 6.384384 1.1474609 11.708618 3.4423828 15.972733c2.2948608 4.264099 6.0996094 6.396164 11.4140625 6.396164c6.6834106 0 12.92395 -3.5809174 18.721558 -10.742722c2.7380981 -3.3706512 5.38031 -7.3101044 7.9266357 -11.818344l0 0c-0.07092285 1.096344 -0.10638428 2.185196 -0.10638428 3.266571c0 5.489151 1.1072388 10.153763 3.3215942 13.993805c2.234497 3.840042 6.009033 5.760071 11.323486 5.760071c4.6904907 0 9.541992 -2.1791534 14.554504 -6.537506c5.012512 -4.334778 9.622498 -9.76503 13.829773 -16.290771c1.3688965 0.73031616 2.788086 1.2839355 4.2576294 1.6608887c1.489685 0.3533783 3.039734 0.5300598 4.6502075 0.5300598c4.086548 0 8.384399 -1.4135132 12.893738 -4.2405396c1.3780518 -0.86395264 2.6611328 -1.9127197 3.8493042 -3.1463165l0 0c-1.5918579 5.0280914 -2.9901733 9.304382 -4.194824 12.828903c-1.3084717 3.7458038 -1.9627075 5.9838867 -1.9627075 6.7141876c0.98638916 1.6019897 2.3753662 2.7917023 4.167053 3.5691376c1.791626 0.8009796 3.6738281 1.201477 5.6466064 1.201477c2.4760742 -4.7823944 5.324585 -10.2126465 8.545471 -16.290756c3.2209473 -6.078125 6.6834106 -11.967773 10.387451 -17.66896c3.7040405 -5.7247314 7.5288696 -10.424675 11.474487 -14.099815c3.9657593 -3.6986923 7.8710938 -5.54805 11.716064 -5.54805c2.093628 0 3.8550415 0.7656555 5.2843018 2.2969666c1.4293213 1.5077438 2.143921 4.287651 2.143921 8.339745c0 3.321762 -0.4328003 6.761322 -1.2984009 10.318665c-0.8656616 3.533783 -1.7714844 6.973343 -2.7176514 10.318665c-0.9260254 3.321762 -1.3890381 6.5021667 -1.3890381 9.541229c0 4.0520782 1.0770264 7.3738403 3.230957 9.965286c2.1741333 2.6150055 5.4353027 3.9225006 9.783569 3.9225006c4.6904297 0 8.948059 -1.5901947 12.772888 -4.7706146c3.8449707 -3.1804047 7.367859 -7.5151825 10.5686035 -13.0043335c3.2209473 -5.5127106 6.129822 -11.8146515 8.726685 -18.905777l-2.0231323 -2.827034c-2.234497 5.347801 -4.8112793 10.624931 -7.7302246 15.831383c-2.8988037 5.2064514 -5.8982544 9.51767 -8.998413 12.93367c-3.079956 3.3924255 -6.159973 5.0886536 -9.23999 5.0886536c-1.6104126 0 -2.9491577 -0.61253357 -4.0160522 -1.8375702c-1.046814 -1.2250519 -1.5701904 -3.3571014 -1.5701904 -6.396164c0 -3.6280212 0.64416504 -7.2089233 1.9325562 -10.742722c1.3084717 -3.5573425 2.5767212 -7.256027 3.8046875 -11.0961c1.2481079 -3.840042 1.8721313 -7.998131 1.8721313 -12.474274c0 -4.923752 -1.0870361 -9.411667 -3.2611694 -13.4637375c-2.1539917 -4.0520706 -5.6365967 -6.0781174 -10.447815 -6.0781174c-4.7105713 0 -9.421143 1.955368 -14.131714 5.866089c-4.6904907 3.9107208 -9.109192 8.799141 -13.2561035 14.66523c-4.12677 5.842537 -7.861023 11.732185 -11.202698 17.668953c1.7312622 -5.9367676 3.1504517 -11.6143875 4.2576294 -17.032875c1.1071777 -5.41848 1.6607666 -9.293861 1.6607666 -11.626167c0 -3.7458115 -1.6708374 -5.618721 -5.012512 -5.618721c-1.7312622 0 -3.4020996 0.5065155 -5.0125732 1.5195312c-1.590271 1.0130081 -2.7578735 2.0260239 -3.5026855 3.0390549c0 4.758835 -0.68444824 10.035965 -2.0533447 15.831375c-0.6038208 2.5945587 -1.2459717 5.160782 -1.9264526 7.6987l0 0c-1.24469 2.4794922 -2.7319336 4.554306 -4.461792 6.2244263c-2.4156494 2.3087616 -4.8615723 3.9342957 -7.3376465 4.8766327c-2.4760742 0.9187927 -4.7005005 1.3781738 -6.673279 1.3781738c-2.4760742 0 -4.831421 -0.7185364 -7.065918 -2.1556091c3.6033936 -6.3608093 6.572693 -12.980789 8.907837 -19.859894c2.3552856 -6.8791046 3.532959 -13.145691 3.532959 -18.799759c0 -4.758835 -0.8656616 -8.728455 -2.5968628 -11.908867c-1.7312622 -3.2039719 -5.133362 -4.805954 -10.206299 -4.805954c-3.824829 0 -7.106079 1.2721634 -9.843872 3.8164902c-2.7176514 2.5207672 -4.7911377 5.8896484 -6.220398 10.106636c-1.4091187 4.193428 -2.1137085 8.669556 -2.1137085 13.428406c0 5.6540604 0.9562378 11.20211 2.8685913 16.644142c1.9124146 5.4184875 4.6099243 9.788605 8.09259 13.110367c-3.482605 5.065094 -7.015564 9.23497 -10.598816 12.509613c-3.583252 3.2510834 -6.67334 4.8766174 -9.270203 4.8766174c-1.9727783 0 -3.583252 -0.9776764 -4.83136 -2.9330444c-1.2279663 -1.955368 -1.84198 -5.112213 -1.84198 -9.470551c0 -2.7328033 0.4630127 -6.0545654 1.3890381 -9.965286c0.9260254 -3.9107208 2.0634155 -7.856781 3.4121704 -11.838196c1.3688965 -3.981392 2.8283691 -7.52697 4.378418 -10.6367035c1.5500488 -3.1097336 2.878662 -5.241791 3.9858398 -6.3961563c-0.62402344 -0.30625916 -1.2782593 -0.5654068 -1.9627075 -0.7774353c-0.66430664 -0.2120285 -1.3084717 -0.31803894 -1.9325562 -0.31803894c-2.5968628 0 -5.163513 1.3075027 -7.700012 3.9225006c-2.536438 2.5914536 -4.83136 5.995674 -6.8846436 10.212654c-2.0332031 4.193428 -3.6638184 8.681335 -4.8917847 13.463745c-0.07122803 0.27597046 -0.14038086 0.5515137 -0.2074585 0.8265991l0 0c-1.1229858 2.394928 -2.3218994 4.75795 -3.5967407 7.089081c-2.8988037 5.27713 -5.9888916 9.659027 -9.270203 13.145691c-3.28125 3.4631195 -6.5927734 5.1946716 -9.934448 5.1946716c-2.7176514 0 -4.7609253 -1.3781738 -6.129822 -4.1345215c-1.3487549 -2.756363 -2.0231323 -6.9497833 -2.0231323 -12.580292c0 -3.3453217 0.21136475 -6.8555603 0.63409424 -10.530701c0.4428711 -3.6986847 1.0367432 -7.503395 1.7816162 -11.414139c5.4352417 -5.2064514 10.588745 -11.425919 15.460327 -18.658401c4.8917847 -7.25605 9.411133 -14.818359 13.558044 -22.686928c4.1469116 -7.892128 7.7301636 -15.713577 10.749756 -23.464363c3.039734 -7.750778 5.3950195 -14.77124 7.065918 -21.061386c1.6708374 -6.290146 2.5062256 -11.390583 2.5062256 -15.301308c0 -2.026041 -0.2515869 -4.299446 -0.7548828 -6.8202133c-0.4831543 -2.5443287 -1.1575317 -4.7234974 -2.0231323 -6.537511c-0.8656006 -1.814013 -1.9828491 -2.7210174 -3.3517456 -2.7210174zm-201.6471 0c-4.086548 0 -8.263672 0.9776802 -12.531372 2.933045c-4.2677 1.9553652 -8.162964 4.676383 -11.685852 8.1630535c-3.5228882 3.4631138 -6.4015503 7.3738384 -8.636047 11.732182c-2.2144165 4.3347855 -3.3215942 8.893372 -3.3215942 13.675762c0 2.3087425 0.33215332 4.8766327 0.99645996 7.703663c0.68444824 2.8034706 1.7312622 5.182884 3.1403809 7.1382523c1.4293213 1.9553642 3.3215942 2.9330482 5.67688 2.9330482c-0.120788574 -1.0130234 -0.21136475 -2.0260468 -0.27178955 -3.0390587c-0.06036377 -1.0130234 -0.09057617 -2.2380753 -0.09057617 -3.6751442c0 -5.936764 0.8354492 -11.944206 2.5062866 -18.022324c1.6708374 -6.0781174 4.2073364 -11.178555 7.609375 -15.301308c3.4020996 -4.122753 7.700012 -6.1841316 12.893738 -6.1841316c2.5968628 0 4.2979126 0.54184914 5.1030884 1.6255426c0.8052368 1.0836935 1.2078857 2.414754 1.2078857 3.9931822c0 1.6019859 -0.22143555 3.2393093 -0.66430664 4.911968c-0.42279053 1.6490993 -0.8253784 2.9801579 -1.2078857 3.9931812c-7.549011 19.694983 -14.695374 38.341614 -21.439148 55.93988c-6.723633 17.574722 -12.782959 33.276527 -18.178009 47.105408c-5.3749084 13.805344 -9.733215 25.019241 -13.07489 33.641678c-3.3417053 8.622452 -5.3749084 13.946686 -6.0996094 15.972733c3.3215637 0 6.7135925 -2.756363 10.176056 -8.2690735c3.4826355 -5.489151 7.4785767 -14.170486 11.987854 -26.044022c4.5092773 -11.873535 10.105591 -27.32798 16.789001 -46.36332c6.6833496 -19.035347 14.967163 -42.016754 24.851318 -68.94423c0.120788574 1.4606304 0.21136475 3.1332874 0.27172852 5.0179806c0.060424805 1.8611336 0.09063721 4.240547 0.09063721 7.138256c0 5.795414 -0.15100098 12.709866 -0.4529419 20.743343c-0.30200195 8.033478 -0.6442261 16.396782 -1.0266724 25.089905c-0.36236572 8.669556 -0.70458984 17.103539 -1.0266724 25.301933c-0.30194092 8.174835 -0.4529419 15.230621 -0.4529419 21.167389c0 8.386871 0.52337646 14.900833 1.5701904 19.541855c1.0669556 4.6174927 3.2611694 6.926239 6.5827637 6.926239c0.62402344 0 1.0568237 -0.07067871 1.2984009 -0.21203613c0.26171875 -0.14134216 0.7649536 -0.3533783 1.5098267 -0.6360779c1.4694824 -5.3713684 3.5631104 -12.109116 6.2807617 -20.213272c2.737793 -8.104172 5.868103 -16.891518 9.39093 -26.362076c3.5228882 -9.4941025 7.2269287 -18.97644 11.112183 -28.446999c3.9053345 -9.494118 7.800598 -18.32859 11.685852 -26.503422c3.9053345 -8.174831 7.649658 -14.936146 11.23291 -20.28395l0 0c-4.8112183 21.27341 -9.109131 41.79295 -12.893677 61.558613c-3.7644653 19.742096 -5.6466675 38.22381 -5.6466675 55.445152c0 5.9367676 0.36236572 10.672043 1.0870361 14.205826c0.74487305 3.5573425 2.234497 6.1370087 4.468994 7.7389984c2.234558 1.6019897 5.4554443 2.4029846 9.662781 2.4029846c-0.5032959 -2.473648 -0.9763794 -4.4054565 -1.4192505 -5.79541c-0.4227295 -1.366394 -0.7649536 -2.9212646 -1.0266724 -4.664612c-0.24157715 -1.7197723 -0.3623047 -4.169861 -0.3623047 -7.350281c0 -6.9497833 0.49316406 -15.525101 1.4795532 -25.725983c1.0065308 -10.200867 2.3452148 -21.096725 4.0161133 -32.687553c1.6708374 -11.590828 3.4926758 -22.993187 5.465454 -34.207077c1.9728394 -11.21389 3.9556885 -21.238075 5.9486084 -30.072548c1.590332 -7.373844 3.1605225 -13.628653 4.7105713 -18.764423c1.5501099 -5.1357746 2.7579346 -9.011163 3.6235352 -11.626166c-2.234497 -1.0130186 -4.217346 -1.5195293 -5.9486084 -1.5195293c-1.9727783 0 -3.583252 0.76565266 -4.83136 2.2969627c-1.2279663 1.5077486 -2.7075806 3.7104788 -4.438843 6.608186c-1.6104126 2.897707 -4.1469116 7.5387516 -7.609375 13.92313c-3.4624634 6.360821 -7.357788 13.887791 -11.685852 22.580914c-4.328125 8.6695595 -8.686401 17.963428 -13.07489 27.881596c-4.388489 9.918175 -8.414612 19.871681 -12.07843 29.86052c-3.6436157 9.988846 -6.4519043 19.388725 -8.424683 28.199638c0.24157715 -8.1041565 0.67437744 -17.0682 1.2984619 -26.892136c0.62402344 -9.847481 1.2078247 -19.836334 1.7513428 -29.96653c0.56365967 -10.130203 0.84552 -19.683208 0.84552 -28.65903c0 -13.192814 -0.71466064 -23.252335 -2.143921 -30.178562c-1.4091797 -6.949785 -3.5128174 -11.767519 -6.310974 -14.453198c-2.7780762 -2.6856804 -6.2002563 -4.02852 -10.266663 -4.02852z" fill-rule="evenodd"/></g></svg>